<svg width="25" height="25" viewBox="0 0 25 25" fill="none" xmlns="http://www.w3.org/2000/svg">
<g clip-path="url(#clip0_530_81)">
<path d="M24.8474 12.1316L17.0349 4.3191C16.8314 4.11564 16.5019 4.11564 16.2984 4.3191C16.095 4.52257 16.095 4.85216 16.2984 5.05558L23.2219 11.979H0.52085C0.232959 11.979 0 12.212 0 12.4999C0 12.7878 0.232959 13.0207 0.52085 13.0207H23.2219L16.2984 19.9441C16.095 20.1476 16.095 20.4772 16.2984 20.6806C16.4001 20.7823 16.5334 20.8332 16.6667 20.8332C16.8 20.8332 16.9332 20.7823 17.035 20.6806L24.8475 12.8681C25.0509 12.6647 25.0509 12.3351 24.8474 12.1316Z" fill="#2C3E50"/>
</g>
<defs>
<clipPath id="clip0_530_81">
<rect width="25" height="25" fill="white"/>
</clipPath>
</defs>
</svg>
