<svg width="57" height="60" viewBox="0 0 57 60" fill="none" xmlns="http://www.w3.org/2000/svg">
<path d="M55.6444 18.3823L29.0467 0.650529C28.7202 0.432897 28.2953 0.432897 27.9689 0.650529L1.37115 18.3823C1.10105 18.5624 0.938477 18.8662 0.938477 19.1907C0.938477 19.5152 1.10041 19.819 1.37115 19.999L5.41094 22.6922V36.8856C5.41094 37.2166 5.57934 37.5249 5.85786 37.7036L28.1386 51.9877C28.2985 52.09 28.4806 52.1412 28.6632 52.1412C28.8543 52.1412 29.046 52.0848 29.2105 51.9721L40.835 44.0415V49.5717L36.5044 58.2329C36.3542 58.5341 36.3704 58.8923 36.5465 59.1786C36.7234 59.4642 37.0368 59.6391 37.373 59.6391H46.2396C46.5764 59.6391 46.8892 59.4642 47.066 59.1786C47.2422 58.8923 47.2591 58.5341 47.1082 58.2329L42.7775 49.5717V42.7156L50.1466 37.6881C50.4115 37.5074 50.5702 37.2068 50.5702 36.8856V23.3814L55.6437 19.999C55.9138 19.819 56.0764 19.5152 56.0764 19.1907C56.0764 18.8662 55.9145 18.5624 55.6444 18.3823ZM38.9457 57.696L41.8066 51.9741L44.6676 57.696H38.9457ZM28.6464 50.005L7.35408 36.3544V23.9876L27.9689 37.7315C28.1321 37.8403 28.3199 37.8947 28.5078 37.8947C28.6956 37.8947 28.8834 37.8403 29.0467 37.7315L40.835 29.8721V41.689L28.6464 50.005ZM48.6277 36.3726L42.7782 40.3638V28.5767L48.6277 24.6768V36.3726ZM49.2618 21.9189C49.1186 21.972 48.9923 22.0568 48.89 22.1669L41.8066 26.8894L29.0467 18.3823C28.5991 18.0844 27.9967 18.2055 27.6994 18.6518C27.4021 19.0981 27.5226 19.7017 27.9689 19.999L40.0552 28.0566L28.5078 35.7553L3.66146 19.1907L28.5078 2.6267L53.354 19.1907L49.2618 21.9189Z" fill="black"/>
</svg>
