<svg width="49" height="61" viewBox="0 0 49 61" fill="none" xmlns="http://www.w3.org/2000/svg">
<path d="M39.4918 7.63231C34.6928 4.3393 28.6445 3.38068 22.762 4.94298C21.5883 2.18693 18.8537 0.250244 15.674 0.250244C11.4296 0.250244 7.9766 3.70454 7.9766 7.95099C7.9766 10.049 8.82252 11.9513 10.1879 13.3413C9.85627 13.7649 9.53241 14.195 9.22993 14.6361C3.28133 23.3104 3.64664 34.2996 10.024 41.7004C7.50571 44.2907 0.220232 52.154 1.00397 55.6562C1.49429 57.8539 5.67269 60.8173 8.1055 60.8173C8.23698 60.8173 8.36329 60.8082 8.48376 60.7907C11.9898 60.2699 16.6722 50.7769 18.2597 47.3408C27.5324 50.5949 37.9405 46.9988 43.8496 38.3867C50.9906 27.9772 49.0352 14.1808 39.4918 7.63231ZM15.674 2.19276C18.8485 2.19276 21.4316 4.77522 21.4316 7.95034C21.4316 11.1235 18.8491 13.7047 15.674 13.7047C12.5009 13.7047 9.91974 11.1235 9.91974 7.95034C9.9191 4.77586 12.5009 2.19276 15.674 2.19276ZM18.1127 45.2104L17.2447 44.862L16.8639 45.7157C12.9543 54.4806 9.44303 58.6837 8.19877 58.8683C6.86124 59.0704 3.19518 56.5533 2.90047 55.232C2.62584 54.0052 5.24779 49.2522 11.9348 42.5276L12.712 41.7484L12.0656 41.0631C8.76034 37.5589 7.05555 33.0508 6.96099 28.3788L31.8079 45.4261C27.4197 46.9897 22.5929 47.0066 18.1127 45.2104ZM42.2471 37.2875C40.041 40.5028 37.1529 42.9525 33.9344 44.529L7.04325 26.0794C7.37423 22.5266 8.62173 18.9583 10.8324 15.7346C11.1115 15.3279 11.4095 14.9308 11.7159 14.5402C12.874 15.2385 14.2257 15.6485 15.674 15.6485C19.9204 15.6485 23.3747 12.1955 23.3747 7.95099C23.3747 7.5643 23.3365 7.18668 23.2814 6.81553C28.6082 5.40739 34.0704 6.26821 38.3926 9.23542C47.0525 15.177 48.7819 27.7615 42.2471 37.2875Z" fill="black"/>
</svg>
