<svg width="43" height="53" viewBox="0 0 43 53" fill="none" xmlns="http://www.w3.org/2000/svg">
<path d="M35.437 1.6942C35.4363 1.6942 35.4363 1.69356 35.4357 1.69356C32.0725 0.0871079 28.4557 1.37033 25.5492 2.40066C24.0628 2.92775 22.6589 3.42582 21.6183 3.42582C20.5776 3.42582 19.1738 2.9284 17.688 2.40066C14.7822 1.36969 11.1654 0.087753 7.79957 1.69356C2.80344 4.08517 -0.843655 9.67937 1.85183 15.7445C2.68667 17.6278 3.46538 19.0671 4.09183 20.2232C5.30215 22.46 6.03312 23.8103 6.03312 26.1232C6.03312 29.72 7.10989 41.4936 11.8938 48.1852C14.3092 51.5678 16.8454 52.7394 16.9525 52.7878C17.3118 52.9503 17.7357 52.8774 18.0215 52.6032C18.3067 52.329 18.3963 51.9084 18.248 51.542C18.2131 51.4568 14.8157 42.9478 16.8415 37.4136C17.9705 34.3458 20.1563 32.62 21.5125 32.7632C21.5828 32.7716 21.6551 32.7716 21.7254 32.7632C23.0931 32.6187 25.2673 34.3465 26.3938 37.4123C28.4221 42.9478 25.0202 51.4561 24.9854 51.5413C24.837 51.9078 24.926 52.3284 25.2112 52.6026C25.3957 52.7794 25.637 52.8729 25.8828 52.8729C26.017 52.8729 26.1518 52.8452 26.2796 52.7878C26.3867 52.7394 28.9273 51.5678 31.3434 48.1852C36.1241 41.4923 37.2002 29.7194 37.2002 26.1226C37.2002 23.8103 37.9305 22.4607 39.1409 20.2239C39.7667 19.0671 40.5454 17.6278 41.3796 15.7458C44.0783 9.68388 40.4331 4.0884 35.437 1.6942ZM39.6099 14.96C38.8054 16.7742 38.0783 18.1181 37.437 19.3032C36.1751 21.6355 35.2634 23.3207 35.2634 26.1232C35.2634 30.4439 33.9196 41.2471 29.7673 47.0607C29.0783 48.0252 28.3802 48.7832 27.7531 49.3671C28.6789 46.1445 29.7183 40.8645 28.2099 36.7458C26.9383 33.2845 24.2738 30.8194 21.8834 30.8194C21.7944 30.8194 21.706 30.8226 21.6183 30.8297C19.1621 30.6329 16.3447 33.1555 15.0234 36.7465C13.5163 40.8632 14.5538 46.1413 15.4783 49.3639C14.8525 48.7807 14.1557 48.0232 13.468 47.06C9.31247 41.2471 7.96796 30.4439 7.96796 26.1232C7.96796 23.3207 7.0557 21.6349 5.79312 19.3026C5.15183 18.1174 4.42473 16.7742 3.62021 14.9594C2.01054 11.3381 2.89376 6.18775 8.63376 3.44066C11.2725 2.17937 14.337 3.26582 17.0409 4.22517C18.6886 4.80969 20.2447 5.3613 21.6183 5.3613C22.9918 5.3613 24.5486 4.80969 26.1963 4.22517C28.8989 3.26646 31.9615 2.18066 34.6021 3.44001C40.3421 6.19162 41.2221 11.3394 39.6099 14.96Z" fill="black"/>
<path d="M12.1416 7.55804C12.6732 7.55482 13.1036 7.1232 13.1036 6.5903C13.1036 6.05546 12.6707 5.62256 12.1358 5.62256C12.0384 5.62256 9.73388 5.64256 8.14033 7.38708C7.01517 8.61933 6.5442 10.349 6.74227 12.5271C7.1642 17.2626 11.3358 20.8258 11.5132 20.9755C11.6945 21.1284 11.9165 21.2032 12.1358 21.2032C12.4113 21.2032 12.6855 21.0858 12.8765 20.8587C13.221 20.4497 13.1687 19.8393 12.7597 19.4948C12.7223 19.4632 9.02227 16.3051 8.67001 12.3542C8.5242 10.7477 8.82291 9.52062 9.55711 8.70708C10.5603 7.59417 12.1145 7.55804 12.1416 7.55804Z" fill="black"/>
</svg>
